<?xml version="1.0" encoding="UTF-8"?>
<!DOCTYPE svg PUBLIC "-//W3C//DTD SVG 1.1//EN" "http://www.w3.org/Graphics/SVG/1.1/DTD/svg11.dtd">
<svg xmlns="http://www.w3.org/2000/svg" version="1.1" width="1024px" height="1024px" style="shape-rendering:geometricPrecision; text-rendering:geometricPrecision; image-rendering:optimizeQuality; fill-rule:evenodd; clip-rule:evenodd" xmlns:xlink="http://www.w3.org/1999/xlink">
<g><path style="opacity:1" fill="#fefefe" d="M -0.5,-0.5 C 340.833,-0.5 682.167,-0.5 1023.5,-0.5C 1023.5,340.833 1023.5,682.167 1023.5,1023.5C 682.167,1023.5 340.833,1023.5 -0.5,1023.5C -0.5,682.167 -0.5,340.833 -0.5,-0.5 Z"/></g>
<g><path style="opacity:1" fill="#166bac" d="M 374.5,544.5 C 376.617,540.29 378.117,535.957 379,531.5C 378.333,532.833 377.667,534.167 377,535.5C 375.357,534.488 374.19,533.488 373.5,532.5C 370.45,532.97 370.117,533.803 372.5,535C 371.034,535.635 369.7,536.469 368.5,537.5C 368.167,537.167 367.833,536.833 367.5,536.5C 369.422,535.04 370.089,533.373 369.5,531.5C 368.635,531.436 367.635,531.103 366.5,530.5C 364.033,532.79 364.033,534.957 366.5,537C 364.043,538.154 364.043,539.488 366.5,541C 364.114,541.284 363.448,542.284 364.5,544C 362.43,544.948 360.93,546.448 360,548.5C 358.924,544.687 357.09,544.02 354.5,546.5C 362.55,533.394 368.716,519.394 373,504.5C 376.033,489.995 377.199,475.328 376.5,460.5C 377.328,466.653 377.828,472.987 378,479.5C 378.167,475.833 378.333,472.167 378.5,468.5C 378.62,462.267 377.953,456.267 376.5,450.5C 366.348,396.52 335.681,359.687 284.5,340C 226.106,323.583 176.272,337.416 135,381.5C 98.5118,430.001 93.5118,481.668 120,536.5C 123.038,539.369 125.871,542.369 128.5,545.5C 126.629,545.141 125.129,544.141 124,542.5C 123.833,542.833 123.667,543.167 123.5,543.5C 132.39,557.058 143.057,569.058 155.5,579.5C 153.606,578.952 151.94,577.952 150.5,576.5C 149.201,577.09 148.368,578.09 148,579.5C 146.796,578.529 146.296,577.529 146.5,576.5C 143.525,576.066 140.525,576.566 137.5,578C 138.833,578.333 140.167,578.667 141.5,579C 140.167,579.667 139.167,580.667 138.5,582C 139.641,582.741 139.641,583.575 138.5,584.5C 139.524,585.852 140.524,587.185 141.5,588.5C 131.857,581.023 123.357,572.356 116,562.5C 86.3844,519.207 78.7178,472.207 93,421.5C 111.017,372.149 144.851,338.982 194.5,322C 247.429,307.039 295.429,316.372 338.5,350C 384.225,390.501 401.725,441.001 391,501.5C 387.925,516.912 382.425,531.245 374.5,544.5 Z"/></g>
<g><path style="opacity:1" fill="#fcfdfd" d="M 376.5,450.5 C 376.5,453.833 376.5,457.167 376.5,460.5C 377.199,475.328 376.033,489.995 373,504.5C 368.716,519.394 362.55,533.394 354.5,546.5C 348.549,554.696 341.882,562.363 334.5,569.5C 324.636,563.323 313.969,559.323 302.5,557.5C 288.037,553.835 273.203,552.169 258,552.5C 252.167,552.667 246.333,552.833 240.5,553C 226.42,555.249 212.42,557.915 198.5,561C 173.044,564.632 149.711,559.465 128.5,545.5C 125.871,542.369 123.038,539.369 120,536.5C 93.5118,481.668 98.5118,430.001 135,381.5C 176.272,337.416 226.106,323.583 284.5,340C 335.681,359.687 366.348,396.52 376.5,450.5 Z"/></g>
<g><path style="opacity:1" fill="#1669b0" d="M 208.5,444.5 C 207.361,441.575 206.861,438.575 207,435.5C 208.692,439.403 210.192,439.403 211.5,435.5C 213.64,439.103 215.807,442.77 218,446.5C 220.279,449.381 223.112,451.381 226.5,452.5C 245.818,458.896 258.985,452.563 266,433.5C 266.495,431.527 266.662,429.527 266.5,427.5C 263.15,427.665 259.817,427.498 256.5,427C 255.186,424.395 255.186,421.895 256.5,419.5C 260.5,419.5 264.5,419.5 268.5,419.5C 269.473,417.052 269.806,414.385 269.5,411.5C 265.167,411.5 260.833,411.5 256.5,411.5C 256.5,409.833 256.5,408.167 256.5,406.5C 260.042,406.813 263.375,406.479 266.5,405.5C 268.845,403.643 269.178,401.31 267.5,398.5C 264.038,397.518 260.371,397.185 256.5,397.5C 256.5,395.833 256.5,394.167 256.5,392.5C 260.371,392.815 264.038,392.482 267.5,391.5C 268.833,389.833 268.833,388.167 267.5,386.5C 267.258,378.43 264.092,371.764 258,366.5C 257.826,371.351 257.326,376.018 256.5,380.5C 256.167,371.167 255.833,371.167 255.5,380.5C 254.167,380.5 252.833,380.5 251.5,380.5C 251.823,374.31 251.49,368.31 250.5,362.5C 250.423,361.25 249.756,360.417 248.5,360C 246.527,359.505 244.527,359.338 242.5,359.5C 242.5,366.5 242.5,373.5 242.5,380.5C 241.167,380.5 239.833,380.5 238.5,380.5C 238.824,373.646 238.491,366.979 237.5,360.5C 237.167,360.5 236.833,360.5 236.5,360.5C 234.183,359.058 232.016,359.392 230,361.5C 229.501,367.491 229.334,373.491 229.5,379.5C 228.167,379.5 226.833,379.5 225.5,379.5C 225.819,374.637 225.486,369.97 224.5,365.5C 223.833,365.5 223.167,365.5 222.5,365.5C 219.571,366.609 216.738,367.942 214,369.5C 213.667,368.833 213.333,368.167 213,367.5C 212.751,368.624 212.251,369.624 211.5,370.5C 210.575,369.359 209.741,369.359 209,370.5C 209.411,367.562 210.578,364.895 212.5,362.5C 214.546,359.634 217.213,357.467 220.5,356C 232.493,351.384 244.493,351.384 256.5,356C 266.087,360.665 272.253,368.165 275,378.5C 275.667,394.833 275.667,411.167 275,427.5C 268.377,460.728 249.544,470.561 218.5,457C 214.169,453.516 210.836,449.349 208.5,444.5 Z"/></g>
<g><path style="opacity:1" fill="#1a42ba" d="M 236.5,360.5 C 234.901,360.232 233.568,360.566 232.5,361.5C 231.883,361.611 231.383,361.944 231,362.5C 230.5,368.825 230.334,375.158 230.5,381.5C 228.5,381.5 226.5,381.5 224.5,381.5C 224.5,376.167 224.5,370.833 224.5,365.5C 225.486,369.97 225.819,374.637 225.5,379.5C 226.833,379.5 228.167,379.5 229.5,379.5C 229.334,373.491 229.501,367.491 230,361.5C 232.016,359.392 234.183,359.058 236.5,360.5 Z"/></g>
<g><path style="opacity:1" fill="#1e4bb9" d="M 250.5,362.5 C 248.862,361.841 247.195,361.174 245.5,360.5C 244.669,367.142 244.169,373.809 244,380.5C 241.36,382.1 239.193,381.766 237.5,379.5C 237.5,373.167 237.5,366.833 237.5,360.5C 238.491,366.979 238.824,373.646 238.5,380.5C 239.833,380.5 241.167,380.5 242.5,380.5C 242.5,373.5 242.5,366.5 242.5,359.5C 244.527,359.338 246.527,359.505 248.5,360C 249.756,360.417 250.423,361.25 250.5,362.5 Z"/></g>
<g><path style="opacity:1" fill="#0435c1" d="M 250.5,362.5 C 251.49,368.31 251.823,374.31 251.5,380.5C 252.833,380.5 254.167,380.5 255.5,380.5C 255.833,371.167 256.167,371.167 256.5,380.5C 254.735,381.461 252.735,381.795 250.5,381.5C 250.5,375.167 250.5,368.833 250.5,362.5 Z"/></g>
<g><path style="opacity:1" fill="#1953a7" d="M 212.5,362.5 C 210.578,364.895 209.411,367.562 209,370.5C 209.741,369.359 210.575,369.359 211.5,370.5C 212.251,369.624 212.751,368.624 213,367.5C 213.333,368.167 213.667,368.833 214,369.5C 216.738,367.942 219.571,366.609 222.5,365.5C 220.205,368.297 217.705,370.964 215,373.5C 213.137,377.649 211.97,381.982 211.5,386.5C 210.71,387.609 210.21,388.942 210,390.5C 209.863,385.702 210.697,381.035 212.5,376.5C 211.271,375.719 209.938,375.219 208.5,375C 209.28,373.927 209.113,372.76 208,371.5C 207.178,373.788 206.511,376.122 206,378.5C 205.381,396.336 204.548,414.003 203.5,431.5C 203.333,414.497 203.5,397.497 204,380.5C 204.592,376.724 205.592,373.057 207,369.5C 207.935,366.405 209.769,364.071 212.5,362.5 Z"/></g>
<g><path style="opacity:1" fill="#9e9753" d="M 232.5,361.5 C 233.568,360.566 234.901,360.232 236.5,360.5C 236.833,360.5 237.167,360.5 237.5,360.5C 237.5,366.833 237.5,373.167 237.5,379.5C 236.51,373.69 236.177,367.69 236.5,361.5C 235.167,361.5 233.833,361.5 232.5,361.5 Z"/></g>
<g><path style="opacity:1" fill="#e7b92a" d="M 250.5,362.5 C 250.5,368.833 250.5,375.167 250.5,381.5C 252.735,381.795 254.735,381.461 256.5,380.5C 257.326,376.018 257.826,371.351 258,366.5C 264.092,371.764 267.258,378.43 267.5,386.5C 267.5,387.833 267.5,389.167 267.5,390.5C 263.629,390.185 259.962,390.518 256.5,391.5C 254.234,393.193 253.9,395.36 255.5,398C 259.486,398.499 263.486,398.666 267.5,398.5C 269.178,401.31 268.845,403.643 266.5,405.5C 262.833,405.5 259.167,405.5 255.5,405.5C 255.5,407.833 255.5,410.167 255.5,412.5C 259.5,412.5 263.5,412.5 267.5,412.5C 267.5,414.5 267.5,416.5 267.5,418.5C 263.629,418.185 259.962,418.518 256.5,419.5C 255.186,421.895 255.186,424.395 256.5,427C 259.817,427.498 263.15,427.665 266.5,427.5C 266.662,429.527 266.495,431.527 266,433.5C 258.985,452.563 245.818,458.896 226.5,452.5C 218.21,446.271 213.21,437.938 211.5,427.5C 211.5,426.833 211.833,426.5 212.5,426.5C 215.85,426.665 219.183,426.498 222.5,426C 223.833,423.667 223.833,421.333 222.5,419C 218.848,418.501 215.182,418.335 211.5,418.5C 211.5,416.5 211.5,414.5 211.5,412.5C 215.226,412.823 218.893,412.489 222.5,411.5C 223.754,409.357 223.754,407.357 222.5,405.5C 218.833,404.833 215.167,404.167 211.5,403.5C 211.5,401.833 211.5,400.167 211.5,398.5C 215.437,398.793 219.27,398.46 223,397.5C 224.9,392.087 223.067,389.753 217.5,390.5C 215.5,390.5 213.5,390.5 211.5,390.5C 211.5,389.167 211.5,387.833 211.5,386.5C 211.97,381.982 213.137,377.649 215,373.5C 217.705,370.964 220.205,368.297 222.5,365.5C 223.167,365.5 223.833,365.5 224.5,365.5C 224.5,370.833 224.5,376.167 224.5,381.5C 226.5,381.5 228.5,381.5 230.5,381.5C 230.334,375.158 230.5,368.825 231,362.5C 231.383,361.944 231.883,361.611 232.5,361.5C 233.833,361.5 235.167,361.5 236.5,361.5C 236.177,367.69 236.51,373.69 237.5,379.5C 239.193,381.766 241.36,382.1 244,380.5C 244.169,373.809 244.669,367.142 245.5,360.5C 247.195,361.174 248.862,361.841 250.5,362.5 Z"/></g>
<g><path style="opacity:1" fill="#697976" d="M 267.5,386.5 C 268.833,388.167 268.833,389.833 267.5,391.5C 263.833,391.5 260.167,391.5 256.5,391.5C 259.962,390.518 263.629,390.185 267.5,390.5C 267.5,389.167 267.5,387.833 267.5,386.5 Z"/></g>
<g><path style="opacity:1" fill="#2d48b8" d="M 256.5,391.5 C 260.167,391.5 263.833,391.5 267.5,391.5C 264.038,392.482 260.371,392.815 256.5,392.5C 256.5,394.167 256.5,395.833 256.5,397.5C 260.371,397.185 264.038,397.518 267.5,398.5C 263.486,398.666 259.486,398.499 255.5,398C 253.9,395.36 254.234,393.193 256.5,391.5 Z"/></g>
<g><path style="opacity:1" fill="#143fb0" d="M 217.5,390.5 C 223.067,389.753 224.9,392.087 223,397.5C 219.27,398.46 215.437,398.793 211.5,398.5C 211.5,400.167 211.5,401.833 211.5,403.5C 210.539,401.735 210.205,399.735 210.5,397.5C 214.167,397.5 217.833,397.5 221.5,397.5C 221.5,395.833 221.5,394.167 221.5,392.5C 218.15,392.665 214.817,392.498 211.5,392C 213.708,391.809 215.708,391.309 217.5,390.5 Z"/></g>
<g><path style="opacity:1" fill="#1370b2" d="M 211.5,386.5 C 211.5,387.833 211.5,389.167 211.5,390.5C 213.5,390.5 215.5,390.5 217.5,390.5C 215.708,391.309 213.708,391.809 211.5,392C 214.817,392.498 218.15,392.665 221.5,392.5C 221.5,394.167 221.5,395.833 221.5,397.5C 217.833,397.5 214.167,397.5 210.5,397.5C 210.205,399.735 210.539,401.735 211.5,403.5C 215.167,404.167 218.833,404.833 222.5,405.5C 219.15,405.335 215.817,405.502 212.5,406C 215.482,406.498 218.482,406.665 221.5,406.5C 221.5,408.167 221.5,409.833 221.5,411.5C 217.833,411.5 214.167,411.5 210.5,411.5C 210.5,414.5 210.5,417.5 210.5,420.5C 214.182,420.335 217.848,420.501 221.5,421C 218.167,421.333 214.833,421.667 211.5,422C 209.604,423.065 209.437,423.898 211,424.5C 213.318,424.484 215.651,424.484 218,424.5C 218.71,423.027 219.876,422.36 221.5,422.5C 221.5,423.5 221.5,424.5 221.5,425.5C 218.287,425.19 215.287,425.523 212.5,426.5C 211.833,426.5 211.5,426.833 211.5,427.5C 210.742,429.981 210.742,432.648 211.5,435.5C 210.192,439.403 208.692,439.403 207,435.5C 206.861,438.575 207.361,441.575 208.5,444.5C 205.871,440.623 204.204,436.29 203.5,431.5C 204.548,414.003 205.381,396.336 206,378.5C 206.511,376.122 207.178,373.788 208,371.5C 209.113,372.76 209.28,373.927 208.5,375C 209.938,375.219 211.271,375.719 212.5,376.5C 210.697,381.035 209.863,385.702 210,390.5C 210.21,388.942 210.71,387.609 211.5,386.5 Z"/></g>
<g><path style="opacity:1" fill="#093cc2" d="M 266.5,405.5 C 263.375,406.479 260.042,406.813 256.5,406.5C 256.5,408.167 256.5,409.833 256.5,411.5C 260.833,411.5 265.167,411.5 269.5,411.5C 269.806,414.385 269.473,417.052 268.5,419.5C 268.802,416.941 268.468,414.607 267.5,412.5C 263.5,412.5 259.5,412.5 255.5,412.5C 255.5,410.167 255.5,407.833 255.5,405.5C 259.167,405.5 262.833,405.5 266.5,405.5 Z"/></g>
<g><path style="opacity:1" fill="#7e8263" d="M 267.5,412.5 C 268.468,414.607 268.802,416.941 268.5,419.5C 264.5,419.5 260.5,419.5 256.5,419.5C 259.962,418.518 263.629,418.185 267.5,418.5C 267.5,416.5 267.5,414.5 267.5,412.5 Z"/></g>
<g><path style="opacity:1" fill="#2797d5" d="M 745.5,467.5 C 746.496,451.342 746.83,435.009 746.5,418.5C 750.833,418.5 755.167,418.5 759.5,418.5C 759.169,444.672 759.502,470.672 760.5,496.5C 755.433,497.824 750.266,497.824 745,496.5C 734.835,478.832 724.168,461.499 713,444.5C 713.471,461.752 713.638,479.085 713.5,496.5C 708.5,496.5 703.5,496.5 698.5,496.5C 698.5,470.167 698.5,443.833 698.5,417.5C 703.762,417.195 708.928,417.529 714,418.5C 724.251,434.666 734.251,451 744,467.5C 744.69,468.738 745.19,468.738 745.5,467.5 Z"/></g>
<g><path style="opacity:1" fill="#1b57b6" d="M 222.5,405.5 C 223.754,407.357 223.754,409.357 222.5,411.5C 218.893,412.489 215.226,412.823 211.5,412.5C 211.5,414.5 211.5,416.5 211.5,418.5C 215.182,418.335 218.848,418.501 222.5,419C 223.833,421.333 223.833,423.667 222.5,426C 219.183,426.498 215.85,426.665 212.5,426.5C 215.287,425.523 218.287,425.19 221.5,425.5C 221.5,424.5 221.5,423.5 221.5,422.5C 219.876,422.36 218.71,423.027 218,424.5C 215.651,424.484 213.318,424.484 211,424.5C 209.437,423.898 209.604,423.065 211.5,422C 214.833,421.667 218.167,421.333 221.5,421C 217.848,420.501 214.182,420.335 210.5,420.5C 210.5,417.5 210.5,414.5 210.5,411.5C 214.167,411.5 217.833,411.5 221.5,411.5C 221.5,409.833 221.5,408.167 221.5,406.5C 218.482,406.665 215.482,406.498 212.5,406C 215.817,405.502 219.15,405.335 222.5,405.5 Z"/></g>
<g><path style="opacity:1" fill="#1d4094" d="M 288.5,431.5 C 287.681,428.695 287.181,425.695 287,422.5C 285.506,421.253 284.006,421.253 282.5,422.5C 281.357,429.998 279.523,437.332 277,444.5C 276.303,446.584 275.136,448.251 273.5,449.5C 277.579,440.282 280.079,430.616 281,420.5C 283.499,419.202 285.833,419.536 288,421.5C 288.498,424.817 288.665,428.15 288.5,431.5 Z"/></g>
<g><path style="opacity:1" fill="#176aba" d="M 760.5,496.5 C 759.502,470.672 759.169,444.672 759.5,418.5C 755.167,418.5 750.833,418.5 746.5,418.5C 746.83,435.009 746.496,451.342 745.5,467.5C 745.5,450.5 745.5,433.5 745.5,416.5C 750.5,416.5 755.5,416.5 760.5,416.5C 760.5,443.167 760.5,469.833 760.5,496.5 Z"/></g>
<g><path style="opacity:1" fill="#102f87" d="M 199.5,432.5 C 198.561,430.601 198.061,427.268 198,422.5C 196.612,421.446 195.112,421.28 193.5,422C 191.984,426.803 190.984,431.637 190.5,436.5C 190.334,431.821 190.501,427.155 191,422.5C 193.367,419.068 196.034,418.735 199,421.5C 199.499,425.152 199.665,428.818 199.5,432.5 Z"/></g>
<g><path style="opacity:1" fill="#023591" d="M 595.5,439.5 C 595.5,443.167 595.5,446.833 595.5,450.5C 591.5,450.5 587.5,450.5 583.5,450.5C 586.962,449.518 590.629,449.185 594.5,449.5C 594.5,446.5 594.5,443.5 594.5,440.5C 590.818,440.665 587.152,440.499 583.5,440C 587.486,439.501 591.486,439.334 595.5,439.5 Z"/></g>
<g><path style="opacity:1" fill="#2193d3" d="M 787.5,437.5 C 805.06,434.855 815.56,442.188 819,459.5C 819.499,463.486 819.666,467.486 819.5,471.5C 807.833,471.5 796.167,471.5 784.5,471.5C 784.968,481.805 790.302,486.638 800.5,486C 805.403,485.131 809.903,483.298 814,480.5C 816.013,484.711 816.513,489.045 815.5,493.5C 803.528,499.868 791.528,500.034 779.5,494C 769.788,484.521 766.288,473.021 769,459.5C 772.16,449.439 778.327,442.106 787.5,437.5 Z"/></g>
<g><path style="opacity:1" fill="#196eb0" d="M 522.5,437.5 C 529.563,437.212 536.563,437.712 543.5,439C 548.116,441.618 551.283,445.451 553,450.5C 554.566,465.793 554.899,481.126 554,496.5C 548.928,497.471 543.762,497.805 538.5,497.5C 538.662,495.473 538.495,493.473 538,491.5C 530.76,498.506 522.26,500.34 512.5,497C 504.467,489.305 502.967,480.472 508,470.5C 516.662,462.886 526.829,458.886 538.5,458.5C 538.755,454.507 537.089,451.674 533.5,450C 526.011,449.122 519.011,450.622 512.5,454.5C 511.167,450.167 511.167,445.833 512.5,441.5C 516.013,440.336 519.346,439.002 522.5,437.5 Z"/></g>
<g><path style="opacity:1" fill="#1670b1" d="M 675.5,461.5 C 674.21,462.058 673.377,463.058 673,464.5C 672.5,475.495 672.333,486.495 672.5,497.5C 667.637,497.819 662.97,497.486 658.5,496.5C 659.239,496.631 659.906,496.464 660.5,496C 659.507,477.576 659.174,459.076 659.5,440.5C 663.5,440.5 667.5,440.5 671.5,440.5C 671.246,442.401 671.58,443.067 672.5,442.5C 673.381,445.354 673.547,448.354 673,451.5C 674.708,446.588 677.542,442.421 681.5,439C 684.702,437.517 688.036,437.183 691.5,438C 692.473,443.407 692.807,448.907 692.5,454.5C 689.15,454.335 685.817,454.502 682.5,455C 679.642,456.694 677.309,458.861 675.5,461.5 Z"/></g>
<g><path style="opacity:1" fill="#2294d4" d="M 918.5,437.5 C 924.509,437.334 930.509,437.501 936.5,438C 939.414,438.133 941.747,439.3 943.5,441.5C 942.726,445.779 942.226,450.113 942,454.5C 936.395,450.63 930.229,448.797 923.5,449C 920.068,451.367 919.735,454.034 922.5,457C 928.531,460.016 934.531,463.016 940.5,466C 950.168,481.155 946.501,491.822 929.5,498C 922.039,498.963 914.706,498.463 907.5,496.5C 906.167,491.5 906.167,486.5 907.5,481.5C 912.225,484.031 917.225,485.698 922.5,486.5C 930.83,485.916 932.497,482.416 927.5,476C 922.084,473.861 916.751,471.528 911.5,469C 904.703,461.638 903.703,453.471 908.5,444.5C 911.344,441.3 914.677,438.967 918.5,437.5 Z"/></g>
<g><path style="opacity:1" fill="#186bae" d="M 620.5,437.5 C 638.073,434.694 648.24,442.027 651,459.5C 651.499,463.486 651.666,467.486 651.5,471.5C 639.482,471.168 627.482,471.501 615.5,472.5C 616.638,475.913 617.971,479.246 619.5,482.5C 622.544,485.02 626.044,486.687 630,487.5C 635.492,486.336 640.659,484.336 645.5,481.5C 647.421,485.289 647.921,489.289 647,493.5C 634.866,499.863 622.699,500.03 610.5,494C 600.613,483.587 597.78,471.421 602,457.5C 605.291,448.047 611.458,441.38 620.5,437.5 Z"/></g>
<g><path style="opacity:1" fill="#1e6eaf" d="M 595.5,439.5 C 591.486,439.334 587.486,439.501 583.5,440C 587.152,440.499 590.818,440.665 594.5,440.5C 594.5,443.5 594.5,446.5 594.5,449.5C 590.629,449.185 586.962,449.518 583.5,450.5C 582.167,458.167 582.167,465.833 583.5,473.5C 581.938,483.954 585.938,487.287 595.5,483.5C 598.651,491.999 595.985,496.999 587.5,498.5C 583.979,497.629 580.312,496.795 576.5,496C 574,494.833 572.167,493 571,490.5C 569.723,477.569 569.057,464.569 569,451.5C 568.5,463.162 568.333,474.829 568.5,486.5C 567.505,475.012 567.172,463.345 567.5,451.5C 564.881,451.768 562.381,451.435 560,450.5C 559.501,446.514 559.334,442.514 559.5,438.5C 562.167,438.5 564.833,438.5 567.5,438.5C 567.334,434.486 567.501,430.486 568,426.5C 572.275,424.479 576.775,423.146 581.5,422.5C 582.495,427.792 582.828,433.125 582.5,438.5C 587.032,438.182 591.366,438.515 595.5,439.5 Z"/></g>
<g><path style="opacity:1" fill="#2595d4" d="M 820.5,438.5 C 825.833,438.5 831.167,438.5 836.5,438.5C 839.359,450.65 842.526,462.65 846,474.5C 848.797,463.11 851.797,451.777 855,440.5C 857.213,439.24 859.713,438.574 862.5,438.5C 865.089,438.527 867.589,438.861 870,439.5C 873.586,451.431 876.919,463.431 880,475.5C 882.373,463.341 885.373,451.341 889,439.5C 893.782,438.198 898.615,438.198 903.5,439.5C 898.084,458.918 892.417,478.251 886.5,497.5C 881.57,497.803 876.737,497.469 872,496.5C 868.49,485.463 864.823,474.463 861,463.5C 857.871,474.555 854.537,485.555 851,496.5C 846.263,497.469 841.43,497.803 836.5,497.5C 830.863,477.9 825.53,458.233 820.5,438.5 Z"/></g>
<g><path style="opacity:1" fill="#f6f8fa" d="M 623.5,448.5 C 632.663,448.322 636.33,452.656 634.5,461.5C 628.561,460.543 622.561,460.21 616.5,460.5C 616.36,454.991 618.693,450.991 623.5,448.5 Z"/></g>
<g><path style="opacity:1" fill="#f7f9fc" d="M 792.5,448.5 C 800.247,448.618 803.914,452.618 803.5,460.5C 797.132,460.83 790.798,460.496 784.5,459.5C 785.501,454.452 788.167,450.786 792.5,448.5 Z"/></g>
<g><path style="opacity:1" fill="#8faecc" d="M 583.5,450.5 C 587.5,450.5 591.5,450.5 595.5,450.5C 591.702,451.483 587.702,451.817 583.5,451.5C 583.5,458.833 583.5,466.167 583.5,473.5C 582.167,465.833 582.167,458.167 583.5,450.5 Z"/></g>
<g><path style="opacity:1" fill="#053893" d="M 376.5,450.5 C 377.953,456.267 378.62,462.267 378.5,468.5C 378.333,472.167 378.167,475.833 378,479.5C 377.828,472.987 377.328,466.653 376.5,460.5C 376.5,457.167 376.5,453.833 376.5,450.5 Z"/></g>
<g><path style="opacity:1" fill="#1966aa" d="M 199.5,432.5 C 204.639,457.265 219.972,468.765 245.5,467C 257.308,465.007 266.641,459.173 273.5,449.5C 275.136,448.251 276.303,446.584 277,444.5C 279.523,437.332 281.357,429.998 282.5,422.5C 284.006,421.253 285.506,421.253 287,422.5C 287.181,425.695 287.681,428.695 288.5,431.5C 284.454,460.119 267.954,475.119 239,476.5C 212.69,475.349 196.523,462.015 190.5,436.5C 190.984,431.637 191.984,426.803 193.5,422C 195.112,421.28 196.612,421.446 198,422.5C 198.061,427.268 198.561,430.601 199.5,432.5 Z"/></g>
<g><path style="opacity:1" fill="#264eb9" d="M 211.5,427.5 C 213.21,437.938 218.21,446.271 226.5,452.5C 223.112,451.381 220.279,449.381 218,446.5C 215.807,442.77 213.64,439.103 211.5,435.5C 210.742,432.648 210.742,429.981 211.5,427.5 Z"/></g>
<g><path style="opacity:1" fill="#1573b9" d="M 412.5,417.5 C 417.833,417.5 423.167,417.5 428.5,417.5C 431.76,434.967 435.593,452.3 440,469.5C 444,452.152 448.5,434.985 453.5,418C 458.751,417.196 463.918,417.363 469,418.5C 472.579,435.744 476.913,452.744 482,469.5C 485.85,452.564 489.516,435.564 493,418.5C 498.072,417.529 503.238,417.195 508.5,417.5C 502.167,444.165 495.5,470.832 488.5,497.5C 483.167,497.5 477.833,497.5 472.5,497.5C 468.466,479.697 463.966,462.031 459,444.5C 454.34,462.142 449.84,479.809 445.5,497.5C 440.167,497.5 434.833,497.5 429.5,497.5C 424.046,471.186 418.046,445.019 411.5,419C 412.056,418.617 412.389,418.117 412.5,417.5 Z"/></g>
<g><path style="opacity:1" fill="#f7f8fa" d="M 534.5,469.5 C 535.833,469.5 537.167,469.5 538.5,469.5C 540.579,479.376 536.746,485.042 527,486.5C 521.294,486.106 519.294,483.106 521,477.5C 524.528,473.154 529.028,470.487 534.5,469.5 Z"/></g>
<g><path style="opacity:1" fill="#062e8f" d="M 672.5,442.5 C 671.58,443.067 671.246,442.401 671.5,440.5C 667.5,440.5 663.5,440.5 659.5,440.5C 659.174,459.076 659.507,477.576 660.5,496C 659.906,496.464 659.239,496.631 658.5,496.5C 658.5,477.5 658.5,458.5 658.5,439.5C 663.167,439.5 667.833,439.5 672.5,439.5C 672.5,440.5 672.5,441.5 672.5,442.5 Z"/></g>
<g><path style="opacity:1" fill="#0f3f96" d="M 587.5,498.5 C 577.324,500.259 570.99,496.259 568.5,486.5C 568.333,474.829 568.5,463.162 569,451.5C 569.057,464.569 569.723,477.569 571,490.5C 572.167,493 574,494.833 576.5,496C 580.312,496.795 583.979,497.629 587.5,498.5 Z"/></g>
<g><path style="opacity:1" fill="#3357a6" d="M 675.5,461.5 C 674.708,473.121 674.208,484.788 674,496.5C 673.617,497.056 673.117,497.389 672.5,497.5C 672.333,486.495 672.5,475.495 673,464.5C 673.377,463.058 674.21,462.058 675.5,461.5 Z"/></g>
<g><path style="opacity:1" fill="#1769ac" d="M 160.5,472.5 C 170.993,473.125 174.16,478.458 170,488.5C 164.855,497.791 160.521,507.458 157,517.5C 156.201,522.087 156.368,526.587 157.5,531C 164.655,530.564 170.488,527.397 175,521.5C 182.198,511.944 188.198,501.61 193,490.5C 197.549,485.395 202.216,485.395 207,490.5C 207.667,492.5 207.667,494.5 207,496.5C 202.253,507.053 200.253,518.053 201,529.5C 206.423,533.658 211.423,532.991 216,527.5C 220.09,522.327 223.423,516.66 226,510.5C 224.604,504.658 224.271,498.658 225,492.5C 230.155,482.626 237.155,480.959 246,487.5C 246.176,494.105 245.176,500.438 243,506.5C 250.233,502.463 257.066,497.796 263.5,492.5C 265.427,488.612 267.427,484.779 269.5,481C 273.5,479 277.5,479 281.5,481C 282.718,482.438 283.385,484.105 283.5,486C 281.543,494.663 279.376,503.163 277,511.5C 285.22,496.28 297.053,484.78 312.5,477C 324.309,474.814 329.809,479.648 329,491.5C 325.533,501.566 321.867,511.566 318,521.5C 317.333,524.5 317.333,527.5 318,530.5C 318.388,531.428 319.055,532.095 320,532.5C 323.908,531.919 327.408,530.419 330.5,528C 335.644,522.702 340.311,517.035 344.5,511C 348.163,509.998 350.496,511.332 351.5,515C 344.431,529.069 333.765,539.402 319.5,546C 306.793,548.295 300.459,542.962 300.5,530C 302.098,517.703 305.431,505.87 310.5,494.5C 310.113,493.28 309.28,492.613 308,492.5C 301.808,495.683 296.475,500.016 292,505.5C 282.379,517.901 273.879,531.068 266.5,545C 256.396,547.556 251.896,543.723 253,533.5C 256.034,524.964 258.534,516.63 260.5,508.5C 253.303,514.552 244.969,517.386 235.5,517C 230.717,525.894 224.717,533.894 217.5,541C 208.364,547.962 199.197,548.129 190,541.5C 187.028,535.912 185.695,529.912 186,523.5C 180.5,530.333 174.333,536.5 167.5,542C 160.319,546.052 152.986,546.386 145.5,543C 143.383,541.269 141.883,539.102 141,536.5C 138.96,526.786 139.294,517.119 142,507.5C 144.91,497.682 148.91,488.349 154,479.5C 155.728,476.67 157.895,474.337 160.5,472.5 Z"/></g>
<g><path style="opacity:1" fill="#f0a92b" d="M 448.5,528.5 C 453.123,527.408 454.956,529.075 454,533.5C 448.41,536.36 446.577,534.693 448.5,528.5 Z"/></g>
<g><path style="opacity:1" fill="#eca01e" d="M 889.5,528.5 C 894.747,528.64 895.747,530.806 892.5,535C 891.207,535.49 889.873,535.657 888.5,535.5C 888.298,533.05 888.631,530.717 889.5,528.5 Z"/></g>
<g><path style="opacity:1" fill="#eea724" d="M 564.5,533.5 C 566.288,533.215 567.955,533.548 569.5,534.5C 568.833,536.5 568.167,538.5 567.5,540.5C 569.167,541.167 570.833,541.833 572.5,542.5C 570.659,543.23 568.825,543.897 567,544.5C 565.91,549.693 564.743,554.859 563.5,560C 563.833,561.167 564.167,562.333 564.5,563.5C 566.361,562.472 567.695,560.972 568.5,559C 569.332,558.312 569.998,558.479 570.5,559.5C 568.206,565.699 564.039,568.032 558,566.5C 558.401,559.094 559.567,551.76 561.5,544.5C 557.556,542.596 557.89,541.596 562.5,541.5C 562.858,538.733 563.525,536.067 564.5,533.5 Z"/></g>
<g><path style="opacity:1" fill="#f0aa20" d="M 633.5,527.5 C 642.821,526.303 645.988,529.97 643,538.5C 639.403,529.893 633.903,528.393 626.5,534C 620.079,540.945 617.912,549.111 620,558.5C 623.076,564.954 627.909,566.788 634.5,564C 641.075,556.143 642.408,556.643 638.5,565.5C 627.749,571.344 619.583,569.01 614,558.5C 610.937,541.931 617.437,531.597 633.5,527.5 Z"/></g>
<g><path style="opacity:1" fill="#f0ab24" d="M 805.5,528.5 C 809.182,528.335 812.848,528.501 816.5,529C 818.963,531.727 818.963,534.56 816.5,537.5C 815.254,531.744 811.921,530.077 806.5,532.5C 804.031,535.674 803.864,539.007 806,542.5C 809.027,545.527 812.027,548.527 815,551.5C 817.258,558.82 814.758,563.987 807.5,567C 802.833,569 798.167,569 793.5,567C 791.38,563.875 791.547,560.708 794,557.5C 795.697,563.543 799.531,565.71 805.5,564C 809.124,561.839 810.291,558.672 809,554.5C 806,551.5 803,548.5 800,545.5C 796.783,538.102 798.617,532.435 805.5,528.5 Z"/></g>
<g><path style="opacity:1" fill="#eea722" d="M 847.5,540.5 C 851.192,539.971 854.358,540.971 857,543.5C 860.659,554.345 857.492,562.512 847.5,568C 841.958,569.892 838.458,568.059 837,562.5C 834.967,552.406 838.467,545.073 847.5,540.5 Z"/></g>
<g><path style="opacity:1" fill="#fcfaf3" d="M 847.5,543.5 C 851.629,543.965 853.629,546.299 853.5,550.5C 853.617,556.934 851.117,561.934 846,565.5C 842.822,563.686 841.322,560.853 841.5,557C 842.022,551.793 844.022,547.293 847.5,543.5 Z"/></g>
<g><path style="opacity:1" fill="#efa81f" d="M 518.5,528.5 C 522.182,528.335 525.848,528.501 529.5,529C 527.513,530.319 526.346,532.152 526,534.5C 524.168,543.828 522.335,553.161 520.5,562.5C 520.79,564.044 521.456,565.377 522.5,566.5C 518.833,567.833 515.167,567.833 511.5,566.5C 512.242,565.713 513.075,565.047 514,564.5C 516.325,554.2 518.492,543.866 520.5,533.5C 520.014,531.696 519.347,530.029 518.5,528.5 Z"/></g>
<g><path style="opacity:1" fill="#efa927" d="M 725.5,540.5 C 731.337,539.518 734.17,541.851 734,547.5C 730.619,551.807 726.119,554.14 720.5,554.5C 720.579,564.862 724.245,566.196 731.5,558.5C 732.116,561.124 731.116,563.291 728.5,565C 722.694,570.387 718.194,569.554 715,562.5C 713.794,552.885 717.294,545.552 725.5,540.5 Z"/></g>
<g><path style="opacity:1" fill="#fbf6ea" d="M 725.5,543.5 C 726.833,543.5 728.167,543.5 729.5,543.5C 729.469,548.207 727.135,551.207 722.5,552.5C 721.386,551.277 721.219,549.944 722,548.5C 723.176,546.804 724.343,545.138 725.5,543.5 Z"/></g>
<g><path style="opacity:1" fill="#efa820" d="M 584.5,540.5 C 594.315,540.746 597.815,545.746 595,555.5C 591.536,567.409 584.536,570.409 574,564.5C 571.435,553.656 574.935,545.656 584.5,540.5 Z"/></g>
<g><path style="opacity:1" fill="#fcfaf3" d="M 583.5,543.5 C 588.332,543.502 590.666,546.002 590.5,551C 589.668,554.164 588.834,557.331 588,560.5C 582.932,567.559 579.765,566.726 578.5,558C 578.871,555.144 579.371,552.311 580,549.5C 581.421,547.595 582.588,545.595 583.5,543.5 Z"/></g>
<g><path style="opacity:1" fill="#eea926" d="M 866.5,540.5 C 868.167,540.5 869.833,540.5 871.5,540.5C 871.25,543.214 871.083,545.881 871,548.5C 872.479,543.671 875.646,541.171 880.5,541C 882.682,545.876 881.349,547.709 876.5,546.5C 870.652,552.153 867.652,559.153 867.5,567.5C 865.833,567.5 864.167,567.5 862.5,567.5C 863.37,561.15 864.37,554.817 865.5,548.5C 865.33,546.285 864.663,544.285 863.5,542.5C 864.602,541.824 865.602,541.158 866.5,540.5 Z"/></g>
<g><path style="opacity:1" fill="#eea922" d="M 533.5,540.5 C 535.167,540.5 536.833,540.5 538.5,540.5C 537.779,543.817 537.612,547.151 538,550.5C 539.198,546.254 541.698,543.087 545.5,541C 547.92,540.313 550.087,540.813 552,542.5C 552.667,545.5 552.667,548.5 552,551.5C 550.847,555.787 550.013,560.121 549.5,564.5C 552.999,564.259 553.332,565.092 550.5,567C 548.231,567.758 546.064,567.591 544,566.5C 544.334,560.809 545.168,555.143 546.5,549.5C 546.167,548.167 545.833,546.833 545.5,545.5C 538.654,551.192 534.987,558.525 534.5,567.5C 532.396,567.799 530.396,567.466 528.5,566.5C 530.408,560.128 531.741,553.628 532.5,547C 532.252,545.284 531.585,543.784 530.5,542.5C 531.602,541.824 532.602,541.158 533.5,540.5 Z"/></g>
<g><path style="opacity:1" fill="#f0aa20" d="M 740.5,540.5 C 742.167,540.5 743.833,540.5 745.5,540.5C 745.319,543.553 745.152,546.553 745,549.5C 746.922,546.157 749.422,543.323 752.5,541C 755.352,540.087 757.519,540.92 759,543.5C 758.63,550.528 757.797,557.528 756.5,564.5C 757.552,564.351 758.552,564.517 759.5,565C 757,567.528 754.166,568.361 751,567.5C 751.414,561.655 752.248,555.822 753.5,550C 753.167,548.5 752.833,547 752.5,545.5C 746.077,551.008 742.243,558.008 741,566.5C 739.274,567.576 737.441,567.743 735.5,567C 737.335,560.982 738.668,554.815 739.5,548.5C 739.635,546.192 738.969,544.192 737.5,542.5C 738.602,541.824 739.602,541.158 740.5,540.5 Z"/></g>
<g><path style="opacity:1" fill="#eea723" d="M 460.5,540.5 C 461.79,541.058 462.623,542.058 463,543.5C 463.579,549.208 464.412,554.875 465.5,560.5C 468.859,557.119 471.192,553.119 472.5,548.5C 472.03,546.226 471.03,544.226 469.5,542.5C 473.752,540.684 476.085,542.017 476.5,546.5C 475.901,549.702 474.734,552.702 473,555.5C 469.833,559.333 466.667,563.167 463.5,567C 462.552,567.483 461.552,567.649 460.5,567.5C 459.961,559.739 458.794,552.073 457,544.5C 456.25,543.874 455.416,543.374 454.5,543C 456.502,541.981 458.502,541.148 460.5,540.5 Z"/></g>
<g><path style="opacity:1" fill="#f0ab21" d="M 827.5,533.5 C 829.288,533.215 830.955,533.548 832.5,534.5C 831.423,536.729 830.756,539.063 830.5,541.5C 832.288,541.215 833.955,541.548 835.5,542.5C 833.1,543.085 831.1,544.252 829.5,546C 827.75,551.74 826.917,557.573 827,563.5C 829.124,562.378 830.957,560.878 832.5,559C 833.167,558.333 833.833,558.333 834.5,559C 832.854,562.31 830.52,564.977 827.5,567C 823.83,568.181 821.497,567.014 820.5,563.5C 821.836,556.812 823.169,550.146 824.5,543.5C 823.325,543.719 822.325,543.386 821.5,542.5C 825.622,540.99 827.622,537.99 827.5,533.5 Z"/></g>
<g><path style="opacity:1" fill="#f0ab20" d="M 489.5,540.5 C 498.444,540.227 500.444,543.727 495.5,551C 492.178,553.332 488.511,554.498 484.5,554.5C 484.667,564.891 488.333,566.224 495.5,558.5C 495.833,558.833 496.167,559.167 496.5,559.5C 493.599,565.449 488.932,567.949 482.5,567C 478.198,562.478 477.365,557.311 480,551.5C 482.314,547.025 485.48,543.358 489.5,540.5 Z"/></g>
<g><path style="opacity:1" fill="#faf6ed" d="M 491.5,542.5 C 493.958,544.493 494.125,546.826 492,549.5C 485.958,554.338 484.291,553.338 487,546.5C 488.397,544.93 489.897,543.596 491.5,542.5 Z"/></g>
<g><path style="opacity:1" fill="#efaa26" d="M 887.5,540.5 C 889.167,540.5 890.833,540.5 892.5,540.5C 891.589,547.571 890.256,554.571 888.5,561.5C 888.833,562.5 889.167,563.5 889.5,564.5C 890.687,563.106 891.354,563.273 891.5,565C 891.095,565.945 890.428,566.612 889.5,567C 887.19,567.497 884.857,567.663 882.5,567.5C 882.793,560.156 884.127,552.989 886.5,546C 886.012,544.416 885.012,543.249 883.5,542.5C 884.949,541.828 886.282,541.161 887.5,540.5 Z"/></g>
<g><path style="opacity:1" fill="#eea622" d="M 906.5,540.5 C 911.137,539.442 914.47,540.942 916.5,545C 915.917,547.499 914.584,549.499 912.5,551C 909.149,552.928 905.649,554.428 902,555.5C 901.205,559.242 902.538,561.909 906,563.5C 916.668,556.921 917.168,558.088 907.5,567C 902.827,569.416 899.327,568.249 897,563.5C 895.23,553.716 898.397,546.049 906.5,540.5 Z"/></g>
<g><path style="opacity:1" fill="#fbf8ee" d="M 906.5,543.5 C 907.833,543.5 909.167,543.5 910.5,543.5C 910.869,548.477 908.535,551.477 903.5,552.5C 902.982,549.157 903.982,546.157 906.5,543.5 Z"/></g>
<g><path style="opacity:1" fill="#f1ab1f" d="M 771.5,533.5 C 773.288,533.215 774.955,533.548 776.5,534.5C 775.833,536.5 775.167,538.5 774.5,540.5C 780.995,542.387 780.662,543.387 773.5,543.5C 772.509,548.816 771.509,554.149 770.5,559.5C 770.833,560.833 771.167,562.167 771.5,563.5C 773.5,562.167 775.167,560.5 776.5,558.5C 776.833,559 777.167,559.5 777.5,560C 775.603,564.23 772.436,567.063 768,568.5C 765.472,567.803 764.306,566.136 764.5,563.5C 765.709,556.787 767.043,550.12 768.5,543.5C 767.325,543.719 766.325,543.386 765.5,542.5C 766.689,541.571 768.022,541.238 769.5,541.5C 769.56,538.659 770.226,535.993 771.5,533.5 Z"/></g>
<g><path style="opacity:1" fill="#efaa23" d="M 410.5,527.5 C 437.37,524.202 445.203,534.869 434,559.5C 430.579,563.257 426.412,565.757 421.5,567C 415.472,567.83 409.472,567.664 403.5,566.5C 404.76,565.618 405.926,564.618 407,563.5C 408.976,553.12 411.143,542.787 413.5,532.5C 412.733,530.643 411.733,528.976 410.5,527.5 Z"/></g>
<g><path style="opacity:1" fill="#fdfcf8" d="M 419.5,530.5 C 430.925,530.653 435.092,536.32 432,547.5C 430.721,558.617 424.554,564.283 413.5,564.5C 415.112,553.106 417.112,541.772 419.5,530.5 Z"/></g>
<g><path style="opacity:1" fill="#439dce" d="M 128.5,545.5 C 149.711,559.465 173.044,564.632 198.5,561C 212.42,557.915 226.42,555.249 240.5,553C 246.333,552.833 252.167,552.667 258,552.5C 273.203,552.169 288.037,553.835 302.5,557.5C 285.765,557.301 269.431,559.801 253.5,565C 242.347,570.077 231.347,575.41 220.5,581C 198.539,590.05 176.872,589.55 155.5,579.5C 143.057,569.058 132.39,557.058 123.5,543.5C 123.667,543.167 123.833,542.833 124,542.5C 125.129,544.141 126.629,545.141 128.5,545.5 Z"/></g>
<g><path style="opacity:1" fill="#efaa25" d="M 445.5,540.5 C 447.5,540.5 449.5,540.5 451.5,540.5C 450.62,547.734 449.287,554.901 447.5,562C 447.833,562.833 448.167,563.667 448.5,564.5C 451.112,564.015 451.112,564.849 448.5,567C 446.19,567.497 443.857,567.663 441.5,567.5C 442.315,560.423 443.648,553.423 445.5,546.5C 445.21,544.956 444.544,543.623 443.5,542.5C 444.243,541.818 444.909,541.151 445.5,540.5 Z"/></g>
<g><path style="opacity:1" fill="#f0ab22" d="M 679.5,540.5 C 680.833,540.5 682.167,540.5 683.5,540.5C 683.337,542.857 683.503,545.19 684,547.5C 685.723,544.275 688.223,541.942 691.5,540.5C 693.266,540.434 694.266,541.268 694.5,543C 693.852,544.44 693.519,545.94 693.5,547.5C 690.673,546.026 688.173,546.36 686,548.5C 682.437,554.354 680.603,560.688 680.5,567.5C 678.396,567.799 676.396,567.466 674.5,566.5C 675.912,560.35 677.246,554.184 678.5,548C 678.309,545.95 677.642,544.117 676.5,542.5C 677.602,541.824 678.602,541.158 679.5,540.5 Z"/></g>
<g><path style="opacity:1" fill="#efa81f" d="M 699.5,540.5 C 701.167,540.5 702.833,540.5 704.5,540.5C 704.373,542.915 704.207,545.249 704,547.5C 705.739,544.093 708.406,541.76 712,540.5C 712.772,540.645 713.439,540.978 714,541.5C 714.495,543.473 714.662,545.473 714.5,547.5C 711.932,546.55 709.432,546.55 707,547.5C 703.136,553.592 700.97,560.258 700.5,567.5C 698.833,567.5 697.167,567.5 695.5,567.5C 696.661,561.036 697.661,554.536 698.5,548C 698.309,545.95 697.642,544.117 696.5,542.5C 697.602,541.824 698.602,541.158 699.5,540.5 Z"/></g>
<g><path style="opacity:1" fill="#efa925" d="M 652.5,540.5 C 653.978,540.238 655.311,540.571 656.5,541.5C 654.688,548.413 653.355,555.413 652.5,562.5C 653.552,562.649 654.552,562.483 655.5,562C 660.296,555.908 663.629,549.075 665.5,541.5C 666.689,540.571 668.022,540.238 669.5,540.5C 668.174,548.122 667.174,555.789 666.5,563.5C 668.942,563.354 669.609,564.187 668.5,566C 666.323,567.202 663.989,567.702 661.5,567.5C 661.665,564.15 661.498,560.817 661,557.5C 658.894,561.604 656.061,565.104 652.5,568C 650.018,568.677 648.185,567.844 647,565.5C 646.871,558.808 648.038,552.308 650.5,546C 649.768,544.235 648.435,543.068 646.5,542.5C 648.631,541.831 650.631,541.165 652.5,540.5 Z"/></g>
<g><path style="opacity:1" fill="#eea51d" d="M 925.5,540.5 C 930.836,539.185 933.503,541.185 933.5,546.5C 930.937,545.8 928.437,544.8 926,543.5C 923.799,544.962 923.133,546.962 924,549.5C 925.815,551.405 927.815,553.072 930,554.5C 932.622,560.099 931.122,564.265 925.5,567C 922.5,567.667 919.5,567.667 916.5,567C 915.092,564.708 915.259,562.541 917,560.5C 918.684,562.351 920.517,564.018 922.5,565.5C 925.842,564.683 927.342,562.683 927,559.5C 924.961,557.126 922.628,555.126 920,553.5C 918.104,547.434 919.938,543.101 925.5,540.5 Z"/></g>
<g><path style="opacity:1" fill="#176dab" d="M 374.5,544.5 C 353.727,583.27 322.061,608.27 279.5,619.5C 270.904,620.987 262.237,622.154 253.5,623C 240.986,623.237 228.653,623.404 216.5,623.5C 187.949,619.053 162.949,607.386 141.5,588.5C 140.524,587.185 139.524,585.852 138.5,584.5C 139.641,583.575 139.641,582.741 138.5,582C 139.167,580.667 140.167,579.667 141.5,579C 140.167,578.667 138.833,578.333 137.5,578C 140.525,576.566 143.525,576.066 146.5,576.5C 146.296,577.529 146.796,578.529 148,579.5C 148.368,578.09 149.201,577.09 150.5,576.5C 151.94,577.952 153.606,578.952 155.5,579.5C 176.872,589.55 198.539,590.05 220.5,581C 231.347,575.41 242.347,570.077 253.5,565C 269.431,559.801 285.765,557.301 302.5,557.5C 313.969,559.323 324.636,563.323 334.5,569.5C 341.882,562.363 348.549,554.696 354.5,546.5C 357.09,544.02 358.924,544.687 360,548.5C 360.93,546.448 362.43,544.948 364.5,544C 363.448,542.284 364.114,541.284 366.5,541C 364.043,539.488 364.043,538.154 366.5,537C 364.033,534.957 364.033,532.79 366.5,530.5C 367.635,531.103 368.635,531.436 369.5,531.5C 370.089,533.373 369.422,535.04 367.5,536.5C 367.833,536.833 368.167,537.167 368.5,537.5C 369.7,536.469 371.034,535.635 372.5,535C 370.117,533.803 370.45,532.97 373.5,532.5C 374.19,533.488 375.357,534.488 377,535.5C 377.667,534.167 378.333,532.833 379,531.5C 378.117,535.957 376.617,540.29 374.5,544.5 Z"/></g>
<g><path style="opacity:1" fill="#439ecf" d="M 289.5,580.5 C 299.122,579.662 308.455,580.828 317.5,584C 293.544,600.093 267.044,607.926 238,607.5C 226.655,607.24 215.489,605.74 204.5,603C 221.773,603.866 238.439,601.2 254.5,595C 265.594,588.442 277.261,583.609 289.5,580.5 Z"/></g>
<g><path style="opacity:1" fill="#294290" d="M 279.5,619.5 C 258.922,625.574 237.922,626.907 216.5,623.5C 228.653,623.404 240.986,623.237 253.5,623C 262.237,622.154 270.904,620.987 279.5,619.5 Z"/></g>
</svg>
