<?xml version="1.0" encoding="UTF-8"?>
<!DOCTYPE svg PUBLIC "-//W3C//DTD SVG 1.1//EN" "http://www.w3.org/Graphics/SVG/1.1/DTD/svg11.dtd">
<svg xmlns="http://www.w3.org/2000/svg" version="1.1" width="1024px" height="1024px" style="shape-rendering:geometricPrecision; text-rendering:geometricPrecision; image-rendering:optimizeQuality; fill-rule:evenodd; clip-rule:evenodd" xmlns:xlink="http://www.w3.org/1999/xlink">
<g><path style="opacity:1" fill="#fefefe" d="M -0.5,-0.5 C 340.833,-0.5 682.167,-0.5 1023.5,-0.5C 1023.5,340.833 1023.5,682.167 1023.5,1023.5C 682.167,1023.5 340.833,1023.5 -0.5,1023.5C -0.5,682.167 -0.5,340.833 -0.5,-0.5 Z"/></g>
<g><path style="opacity:1" fill="#026098" d="M 848.5,534.5 C 847.669,520.006 847.169,505.339 847,490.5C 846.933,493.047 846.099,495.214 844.5,497C 844.833,497.333 845.167,497.667 845.5,498C 843.182,499.993 840.516,501.159 837.5,501.5C 837.374,498.532 835.874,496.532 833,495.5C 833.374,497.769 833.374,500.102 833,502.5C 831.167,504.167 829.333,505.833 827.5,507.5C 829.48,509.795 830.647,512.461 831,515.5C 831.333,515.167 831.667,514.833 832,514.5C 834.435,516.437 834.602,518.27 832.5,520C 832.833,520.333 833.167,520.667 833.5,521C 831.953,521.333 830.62,520.833 829.5,519.5C 827.058,521.643 824.392,521.81 821.5,520C 823.782,518.703 826.115,518.203 828.5,518.5C 829.449,515.874 829.449,513.208 828.5,510.5C 826.097,510.393 824.264,511.393 823,513.5C 822.313,511.432 822.48,509.432 823.5,507.5C 822.501,503.639 821.335,503.639 820,507.5C 819.009,506.061 817.676,505.061 816,504.5C 815.667,502.833 815.333,501.167 815,499.5C 814.2,508.91 813.034,516.243 811.5,521.5C 814.111,421.741 777.777,339.574 702.5,275C 617.2,210.501 522.867,192.834 419.5,222C 394.043,230.231 370.043,241.398 347.5,255.5C 348.864,252.396 348.698,249.396 347,246.5C 345.984,247.634 345.317,247.301 345,245.5C 344.385,250.207 342.885,250.207 340.5,245.5C 340.5,244.167 340.5,242.833 340.5,241.5C 338.726,240.813 337.059,239.98 335.5,239C 338.71,237.818 339.21,235.985 337,233.5C 335.595,235.191 334.428,237.024 333.5,239C 332.004,239.507 330.837,239.007 330,237.5C 329.383,238.449 329.549,239.282 330.5,240C 335.833,240.667 335.833,241.333 330.5,242C 331.471,243.204 332.471,243.704 333.5,243.5C 332.675,244.386 331.675,244.719 330.5,244.5C 330.66,246.199 330.494,247.866 330,249.5C 328.022,247.254 327.022,244.921 327,242.5C 324.736,245.256 325.236,247.422 328.5,249C 326.875,249.853 326.542,250.853 327.5,252C 326.675,253.688 325.675,253.855 324.5,252.5C 324.467,253.989 323.967,255.322 323,256.5C 322.517,255.552 322.351,254.552 322.5,253.5C 321.127,253.657 319.793,253.49 318.5,253C 320.451,251.266 321.451,249.099 321.5,246.5C 318.491,246.423 316.324,247.756 315,250.5C 314.682,248.939 313.849,247.772 312.5,247C 313.76,245.887 314.927,245.72 316,246.5C 316.27,245.068 315.604,244.068 314,243.5C 312.324,244.1 310.657,245.433 309,247.5C 308.075,246.953 307.242,246.287 306.5,245.5C 307.711,244.28 307.711,243.113 306.5,242C 307.167,241.333 307.833,240.667 308.5,240C 306.811,240.134 305.144,240.634 303.5,241.5C 347.158,207.518 396.491,185.685 451.5,176C 561.25,159.259 657.917,186.926 741.5,259C 818.888,334.287 854.555,426.12 848.5,534.5 Z"/></g>
<g><path style="opacity:1" fill="#fdfefe" d="M 811.5,521.5 C 806.868,593.599 780.534,656.432 732.5,710C 731.833,710.667 731.167,710.667 730.5,710C 726.88,706.533 722.88,703.7 718.5,701.5C 710.231,695.022 701.231,689.522 691.5,685C 637.457,661.375 581.124,653.041 522.5,660C 496.282,665.054 470.282,671.054 444.5,678C 405.03,687.839 365.364,688.839 325.5,681C 295.119,673.81 268.119,660.31 244.5,640.5C 241.597,637.707 239.431,634.374 238,630.5C 210.532,566.083 204.865,499.75 221,431.5C 241.411,356.963 283.578,298.296 347.5,255.5C 370.043,241.398 394.043,230.231 419.5,222C 522.867,192.834 617.2,210.501 702.5,275C 777.777,339.574 814.111,421.741 811.5,521.5 Z"/></g>
<g><path style="opacity:1" fill="#09619c" d="M 498.5,255.5 C 514.881,254.243 530.881,256.077 546.5,261C 565.497,269.783 576.664,284.616 580,305.5C 580.667,340.167 580.667,374.833 580,409.5C 572.597,442.569 552.097,461.402 518.5,466C 490.97,467.727 469.137,457.561 453,435.5C 447.473,426.585 444.139,416.918 443,406.5C 442.333,372.833 442.333,339.167 443,305.5C 449.743,275.582 468.243,258.916 498.5,255.5 Z"/></g>
<g><path style="opacity:1" fill="#0c3fd0" d="M 558.5,287.5 C 554.123,282.957 549.29,278.957 544,275.5C 543.5,287.495 543.333,299.495 543.5,311.5C 542.505,299.345 542.171,287.011 542.5,274.5C 549.616,276.614 554.949,280.947 558.5,287.5 Z"/></g>
<g><path style="opacity:1" fill="#0c3dcc" d="M 530.5,272.5 C 531.331,284.993 531.831,297.66 532,310.5C 532.833,311.333 533.667,312.167 534.5,313C 537.063,313.126 539.396,313.293 541.5,313.5C 537.451,315.282 533.951,314.615 531,311.5C 530.5,298.504 530.333,285.504 530.5,272.5 Z"/></g>
<g><path style="opacity:1" fill="#f6c008" d="M 506.5,310.5 C 507.378,313.287 509.378,314.62 512.5,314.5C 515.102,314.533 517.102,313.533 518.5,311.5C 519.496,298.01 519.829,284.344 519.5,270.5C 523.458,270.251 527.124,270.918 530.5,272.5C 530.333,285.504 530.5,298.504 531,311.5C 533.951,314.615 537.451,315.282 541.5,313.5C 542.5,313.167 543.167,312.5 543.5,311.5C 543.333,299.495 543.5,287.495 544,275.5C 549.29,278.957 554.123,282.957 558.5,287.5C 566.214,301.096 569.214,315.762 567.5,331.5C 559.316,331.174 551.316,331.508 543.5,332.5C 540.713,333.378 539.38,335.378 539.5,338.5C 539.724,341.722 541.39,343.722 544.5,344.5C 551.648,345.492 558.981,345.825 566.5,345.5C 566.5,350.167 566.5,354.833 566.5,359.5C 558.981,359.175 551.648,359.508 544.5,360.5C 541.296,361.378 539.63,363.545 539.5,367C 539.703,369.406 540.703,371.406 542.5,373C 550.827,373.5 559.16,373.666 567.5,373.5C 567.5,378.5 567.5,383.5 567.5,388.5C 559.316,388.174 551.316,388.508 543.5,389.5C 538.578,392.684 538.245,396.517 542.5,401C 550.827,401.5 559.16,401.666 567.5,401.5C 566.511,411.479 563.177,420.479 557.5,428.5C 558.754,423.984 560.587,419.651 563,415.5C 564.154,411.553 564.987,407.553 565.5,403.5C 558.159,403.666 550.826,403.5 543.5,403C 538.391,399.634 537.224,395.134 540,389.5C 540.903,388.299 542.069,387.465 543.5,387C 550.826,386.5 558.159,386.334 565.5,386.5C 565.5,382.833 565.5,379.167 565.5,375.5C 557.389,375.935 549.389,375.435 541.5,374C 538.261,371.051 537.261,367.551 538.5,363.5C 537.133,359.625 534.799,358.792 531.5,361C 532.654,361.914 532.487,362.747 531,363.5C 530.692,362.692 530.192,362.025 529.5,361.5C 528.52,362.981 527.353,364.315 526,365.5C 526.902,361.218 525.569,357.551 522,354.5C 521.019,357.655 519.685,357.988 518,355.5C 517.667,356.167 517.333,356.833 517,357.5C 517.319,355.257 517.152,353.09 516.5,351C 517.678,350.033 519.011,349.533 520.5,349.5C 520.911,350.262 521.077,351.262 521,352.5C 521.899,350.484 523.233,348.817 525,347.5C 525.688,346.668 525.521,346.002 524.5,345.5C 523.575,346.641 522.741,346.641 522,345.5C 520.513,346.253 520.346,347.086 521.5,348C 518.535,347.556 516.035,348.723 514,351.5C 512.98,350.109 512.147,348.609 511.5,347C 510.552,346.517 509.552,346.351 508.5,346.5C 508.649,345.448 508.483,344.448 508,343.5C 507.667,343.833 507.333,344.167 507,344.5C 506.5,343.333 505.667,342.5 504.5,342C 505.025,341.308 505.692,340.808 506.5,340.5C 507.768,341.428 509.101,341.595 510.5,341C 509.109,339.98 507.609,339.147 506,338.5C 506.148,337.175 505.982,336.008 505.5,335C 506.715,332.904 507.549,333.071 508,335.5C 508.333,334.833 508.667,334.167 509,333.5C 509.718,334.451 510.551,334.617 511.5,334C 510.672,333.085 509.672,332.419 508.5,332C 508.919,328.725 510.253,325.891 512.5,323.5C 510.169,321.383 509.003,318.716 509,315.5C 507,314.833 505.667,313.5 505,311.5C 504.5,298.504 504.333,285.504 504.5,272.5C 501.833,272.5 499.167,272.5 496.5,272.5C 496.667,285.504 496.5,298.504 496,311.5C 490.667,318.167 485.333,318.167 480,311.5C 479.667,300.167 479.333,288.833 479,277.5C 476.876,278.622 475.043,280.122 473.5,282C 475.583,283.32 475.249,284.654 472.5,286C 472.833,286.333 473.167,286.667 473.5,287C 472.5,287.333 471.5,287.667 470.5,288C 470.973,290.86 472.306,293.193 474.5,295C 469.647,296.404 466.98,294.571 466.5,289.5C 465.817,289.863 465.15,290.196 464.5,290.5C 468.472,283.732 473.972,278.399 481,274.5C 481.464,275.094 481.631,275.761 481.5,276.5C 481.333,288.171 481.5,299.838 482,311.5C 485.334,315.005 488.834,315.339 492.5,312.5C 493.117,312.389 493.617,312.056 494,311.5C 494.333,298.167 494.667,284.833 495,271.5C 498.394,270.544 501.894,270.211 505.5,270.5C 505.171,284.01 505.504,297.344 506.5,310.5 Z"/></g>
<g><path style="opacity:1" fill="#0445c6" d="M 518.5,311.5 C 517.102,313.533 515.102,314.533 512.5,314.5C 509.378,314.62 507.378,313.287 506.5,310.5C 506.333,297.496 506.5,284.496 507,271.5C 507.333,284.833 507.667,298.167 508,311.5C 511.046,313.971 514.046,313.971 517,311.5C 517.833,258.171 518.333,258.171 518.5,311.5 Z"/></g>
<g><path style="opacity:1" fill="#0736cd" d="M 481.5,276.5 C 482.331,287.659 482.831,298.993 483,310.5C 485.603,313.654 488.769,314.321 492.5,312.5C 488.834,315.339 485.334,315.005 482,311.5C 481.5,299.838 481.333,288.171 481.5,276.5 Z"/></g>
<g><path style="opacity:1" fill="#1950b2" d="M 459.5,297.5 C 456.825,308.645 455.825,319.978 456.5,331.5C 456.167,331.5 455.833,331.5 455.5,331.5C 453.951,321.539 454.451,311.539 457,301.5C 457.608,299.934 458.442,298.6 459.5,297.5 Z"/></g>
<g><path style="opacity:1" fill="#0432dc" d="M 455.5,331.5 C 455.833,331.5 456.167,331.5 456.5,331.5C 464.507,331.334 472.507,331.5 480.5,332C 482.426,332.422 483.426,333.589 483.5,335.5C 482.317,334.496 480.984,333.662 479.5,333C 471.323,332.829 463.323,332.329 455.5,331.5 Z"/></g>
<g><path style="opacity:1" fill="#0237d6" d="M 483.5,341.5 C 483.047,342.458 482.381,343.292 481.5,344C 473.173,344.5 464.84,344.666 456.5,344.5C 463.752,343.653 471.752,343.153 480.5,343C 481.333,342.167 482.167,341.333 483,340.5C 483.399,340.728 483.565,341.062 483.5,341.5 Z"/></g>
<g><path style="opacity:1" fill="#0d3bcd" d="M 543.5,332.5 C 540.88,336.002 540.88,339.502 543.5,343C 551.827,343.5 560.16,343.666 568.5,343.5C 568.821,349.026 568.488,354.36 567.5,359.5C 567.5,354.5 567.5,349.5 567.5,344.5C 559.833,344.5 552.167,344.5 544.5,344.5C 541.39,343.722 539.724,341.722 539.5,338.5C 539.38,335.378 540.713,333.378 543.5,332.5 Z"/></g>
<g><path style="opacity:1" fill="#e4cd1d" d="M 464.5,290.5 C 458.615,302.834 456.281,315.834 457.5,329.5C 465.917,329.094 474.251,329.594 482.5,331C 488.431,336.977 487.764,341.977 480.5,346C 472.841,346.5 465.174,346.666 457.5,346.5C 457.5,350.5 457.5,354.5 457.5,358.5C 465.174,358.334 472.841,358.5 480.5,359C 484.044,360.539 486.044,363.206 486.5,367C 485.947,368.878 484.947,370.378 483.5,371.5C 485.208,367.541 484.542,364.041 481.5,361C 473.173,360.5 464.84,360.334 456.5,360.5C 456.5,355.167 456.5,349.833 456.5,344.5C 464.84,344.666 473.173,344.5 481.5,344C 482.381,343.292 483.047,342.458 483.5,341.5C 484.833,339.5 484.833,337.5 483.5,335.5C 483.426,333.589 482.426,332.422 480.5,332C 472.507,331.5 464.507,331.334 456.5,331.5C 455.825,319.978 456.825,308.645 459.5,297.5C 460.921,294.991 462.588,292.657 464.5,290.5 Z"/></g>
<g><path style="opacity:1" fill="#f9b804" d="M 544.5,346.5 C 551.5,346.5 558.5,346.5 565.5,346.5C 565.5,350.5 565.5,354.5 565.5,358.5C 557.826,358.666 550.159,358.5 542.5,358C 541.833,357.333 541.167,356.667 540.5,356C 542.577,353.108 543.911,349.941 544.5,346.5 Z"/></g>
<g><path style="opacity:1" fill="#93973f" d="M 544.5,344.5 C 552.167,344.5 559.833,344.5 567.5,344.5C 567.5,349.5 567.5,354.5 567.5,359.5C 567.5,359.833 567.5,360.167 567.5,360.5C 559.833,360.5 552.167,360.5 544.5,360.5C 551.648,359.508 558.981,359.175 566.5,359.5C 566.5,354.833 566.5,350.167 566.5,345.5C 558.981,345.825 551.648,345.492 544.5,344.5 Z"/></g>
<g><path style="opacity:1" fill="#0c40cd" d="M 544.5,360.5 C 552.167,360.5 559.833,360.5 567.5,360.5C 559.677,361.329 551.677,361.829 543.5,362C 540.833,365.333 540.833,368.667 543.5,372C 551.677,372.171 559.677,372.671 567.5,373.5C 559.16,373.666 550.827,373.5 542.5,373C 540.703,371.406 539.703,369.406 539.5,367C 539.63,363.545 541.296,361.378 544.5,360.5 Z"/></g>
<g><path style="opacity:1" fill="#1241c2" d="M 456.5,360.5 C 464.84,360.334 473.173,360.5 481.5,361C 484.542,364.041 485.208,367.541 483.5,371.5C 482.527,371.987 481.527,372.487 480.5,373C 472.507,373.5 464.507,373.666 456.5,373.5C 463.418,372.652 471.085,372.152 479.5,372C 483.181,369.202 483.514,365.869 480.5,362C 471.752,361.847 463.752,361.347 456.5,360.5 Z"/></g>
<g><path style="opacity:1" fill="#0a4182" d="M 223.5,331.5 C 222.538,334.757 221.038,337.757 219,340.5C 218.242,342.769 218.409,344.936 219.5,347C 217.649,347.837 215.816,348.671 214,349.5C 203.767,368.628 195.767,388.628 190,409.5C 189.31,410.738 188.81,410.738 188.5,409.5C 196.408,381.693 208.075,355.693 223.5,331.5 Z"/></g>
<g><path style="opacity:1" fill="#e4cb1c" d="M 483.5,371.5 C 483.063,373.074 482.063,374.241 480.5,375C 472.841,375.5 465.174,375.666 457.5,375.5C 457.5,379.167 457.5,382.833 457.5,386.5C 465.174,386.334 472.841,386.5 480.5,387C 488.35,392.288 488.35,397.621 480.5,403C 473.174,403.5 465.841,403.666 458.5,403.5C 458.375,408.333 459.208,413 461,417.5C 463.271,422.38 465.771,427.046 468.5,431.5C 461.256,423.667 457.256,414.333 456.5,403.5C 456.5,402.833 456.5,402.167 456.5,401.5C 464.84,401.666 473.173,401.5 481.5,401C 485.731,396.522 485.398,392.522 480.5,389C 472.507,388.5 464.507,388.334 456.5,388.5C 456.5,383.5 456.5,378.5 456.5,373.5C 464.507,373.666 472.507,373.5 480.5,373C 481.527,372.487 482.527,371.987 483.5,371.5 Z"/></g>
<g><path style="opacity:1" fill="#022fda" d="M 567.5,373.5 C 568.488,378.64 568.821,383.974 568.5,389.5C 560.167,389.5 551.833,389.5 543.5,389.5C 551.316,388.508 559.316,388.174 567.5,388.5C 567.5,383.5 567.5,378.5 567.5,373.5 Z"/></g>
<g><path style="opacity:1" fill="#f8ba05" d="M 557.5,428.5 C 555.518,428.995 553.518,429.495 551.5,430C 552.731,431.183 552.731,432.349 551.5,433.5C 550.188,432.54 548.854,432.706 547.5,434C 546.944,436.237 545.944,438.237 544.5,440C 526.06,451.554 506.726,453.22 486.5,445C 479.991,440.965 473.991,436.465 468.5,431.5C 465.771,427.046 463.271,422.38 461,417.5C 459.208,413 458.375,408.333 458.5,403.5C 465.841,403.666 473.174,403.5 480.5,403C 488.35,397.621 488.35,392.288 480.5,387C 472.841,386.5 465.174,386.334 457.5,386.5C 457.5,382.833 457.5,379.167 457.5,375.5C 465.174,375.666 472.841,375.5 480.5,375C 482.063,374.241 483.063,373.074 483.5,371.5C 484.947,370.378 485.947,368.878 486.5,367C 486.044,363.206 484.044,360.539 480.5,359C 472.841,358.5 465.174,358.334 457.5,358.5C 457.5,354.5 457.5,350.5 457.5,346.5C 465.174,346.666 472.841,346.5 480.5,346C 487.764,341.977 488.431,336.977 482.5,331C 474.251,329.594 465.917,329.094 457.5,329.5C 456.281,315.834 458.615,302.834 464.5,290.5C 465.15,290.196 465.817,289.863 466.5,289.5C 466.98,294.571 469.647,296.404 474.5,295C 472.306,293.193 470.973,290.86 470.5,288C 471.5,287.667 472.5,287.333 473.5,287C 473.167,286.667 472.833,286.333 472.5,286C 475.249,284.654 475.583,283.32 473.5,282C 475.043,280.122 476.876,278.622 479,277.5C 479.333,288.833 479.667,300.167 480,311.5C 485.333,318.167 490.667,318.167 496,311.5C 496.5,298.504 496.667,285.504 496.5,272.5C 499.167,272.5 501.833,272.5 504.5,272.5C 504.333,285.504 504.5,298.504 505,311.5C 505.667,313.5 507,314.833 509,315.5C 509.003,318.716 510.169,321.383 512.5,323.5C 510.253,325.891 508.919,328.725 508.5,332C 509.672,332.419 510.672,333.085 511.5,334C 510.551,334.617 509.718,334.451 509,333.5C 508.667,334.167 508.333,334.833 508,335.5C 507.549,333.071 506.715,332.904 505.5,335C 505.982,336.008 506.148,337.175 506,338.5C 507.609,339.147 509.109,339.98 510.5,341C 509.101,341.595 507.768,341.428 506.5,340.5C 505.692,340.808 505.025,341.308 504.5,342C 505.667,342.5 506.5,343.333 507,344.5C 507.333,344.167 507.667,343.833 508,343.5C 508.483,344.448 508.649,345.448 508.5,346.5C 509.552,346.351 510.552,346.517 511.5,347C 512.147,348.609 512.98,350.109 514,351.5C 516.035,348.723 518.535,347.556 521.5,348C 520.346,347.086 520.513,346.253 522,345.5C 522.741,346.641 523.575,346.641 524.5,345.5C 525.521,346.002 525.688,346.668 525,347.5C 523.233,348.817 521.899,350.484 521,352.5C 521.077,351.262 520.911,350.262 520.5,349.5C 519.011,349.533 517.678,350.033 516.5,351C 517.152,353.09 517.319,355.257 517,357.5C 517.333,356.833 517.667,356.167 518,355.5C 519.685,357.988 521.019,357.655 522,354.5C 525.569,357.551 526.902,361.218 526,365.5C 527.353,364.315 528.52,362.981 529.5,361.5C 530.192,362.025 530.692,362.692 531,363.5C 532.487,362.747 532.654,361.914 531.5,361C 534.799,358.792 537.133,359.625 538.5,363.5C 537.261,367.551 538.261,371.051 541.5,374C 549.389,375.435 557.389,375.935 565.5,375.5C 565.5,379.167 565.5,382.833 565.5,386.5C 558.159,386.334 550.826,386.5 543.5,387C 542.069,387.465 540.903,388.299 540,389.5C 537.224,395.134 538.391,399.634 543.5,403C 550.826,403.5 558.159,403.666 565.5,403.5C 564.987,407.553 564.154,411.553 563,415.5C 560.587,419.651 558.754,423.984 557.5,428.5 Z"/></g>
<g><path style="opacity:1" fill="#045f99" d="M 421.5,383.5 C 426.742,382.271 430.575,383.937 433,388.5C 432.382,410.305 438.382,429.971 451,447.5C 477.871,475.009 509.371,481.843 545.5,468C 577.341,450.839 592.508,424.006 591,387.5C 593.955,383.723 597.788,382.557 602.5,384C 604.333,384.5 605.5,385.667 606,387.5C 608.755,433.186 589.588,465.686 548.5,485C 511.556,497.749 477.89,492.083 447.5,468C 425.551,446.171 415.384,419.671 417,388.5C 418.025,386.313 419.525,384.646 421.5,383.5 Z"/></g>
<g><path style="opacity:1" fill="#0d49c0" d="M 548.5,439.5 C 544.088,444.219 538.755,447.719 532.5,450C 530.934,450.765 529.601,450.598 528.5,449.5C 535.756,447.205 542.422,443.872 548.5,439.5 Z"/></g>
<g><path style="opacity:1" fill="#e9cf1e" d="M 557.5,428.5 C 554.878,432.457 551.878,436.124 548.5,439.5C 542.422,443.872 535.756,447.205 528.5,449.5C 527.508,449.328 526.842,449.662 526.5,450.5C 513.218,452.549 500.218,451.549 487.5,447.5C 480.628,443.637 474.295,438.97 468.5,433.5C 468.5,432.833 468.5,432.167 468.5,431.5C 473.991,436.465 479.991,440.965 486.5,445C 506.726,453.22 526.06,451.554 544.5,440C 545.944,438.237 546.944,436.237 547.5,434C 548.854,432.706 550.188,432.54 551.5,433.5C 552.731,432.349 552.731,431.183 551.5,430C 553.518,429.495 555.518,428.995 557.5,428.5 Z"/></g>
<g><path style="opacity:1" fill="#1748bd" d="M 456.5,403.5 C 457.256,414.333 461.256,423.667 468.5,431.5C 468.5,432.167 468.5,432.833 468.5,433.5C 459.99,425.168 455.99,415.168 456.5,403.5 Z"/></g>
<g><path style="opacity:1" fill="#093dd0" d="M 543.5,389.5 C 540.88,393.002 540.88,396.502 543.5,400C 551.677,400.171 559.677,400.671 567.5,401.5C 559.16,401.666 550.827,401.5 542.5,401C 538.245,396.517 538.578,392.684 543.5,389.5 Z"/></g>
<g><path style="opacity:1" fill="#0f3ec7" d="M 456.5,388.5 C 464.507,388.334 472.507,388.5 480.5,389C 485.398,392.522 485.731,396.522 481.5,401C 473.173,401.5 464.84,401.666 456.5,401.5C 464.323,400.671 472.323,400.171 480.5,400C 482.478,397.503 482.978,394.669 482,391.5C 481.25,390.874 480.416,390.374 479.5,390C 471.085,389.848 463.418,389.348 456.5,388.5 Z"/></g>
<g><path style="opacity:1" fill="#1251b4" d="M 487.5,447.5 C 500.218,451.549 513.218,452.549 526.5,450.5C 525.109,451.985 522.776,452.819 519.5,453C 512.152,453.521 504.819,453.355 497.5,452.5C 497.719,453.675 497.386,454.675 496.5,455.5C 495.756,454.009 495.09,452.509 494.5,451C 491.719,450.478 489.385,449.311 487.5,447.5 Z"/></g>
<g><path style="opacity:1" fill="#03619b" d="M 698.5,510.5 C 697.476,517.784 695.976,525.118 694,532.5C 686.737,551.955 680.071,571.621 674,591.5C 672.603,598.452 672.27,605.452 673,612.5C 673.422,614.426 674.589,615.426 676.5,615.5C 681.193,615.102 685.526,613.602 689.5,611C 697.933,604.571 705.766,597.404 713,589.5C 719.167,582 725.333,574.5 731.5,567C 737.03,564.5 741.197,566 744,571.5C 744.738,575.402 744.072,579.068 742,582.5C 730.267,599.567 716.434,614.734 700.5,628C 691.105,634.864 680.771,639.864 669.5,643C 646.727,645.732 635.394,635.565 635.5,612.5C 635.488,606.057 636.322,599.724 638,593.5C 645.436,572.193 652.269,550.693 658.5,529C 657.976,525.645 655.976,523.812 652.5,523.5C 646.195,525.973 640.528,529.473 635.5,534C 606.192,563.975 582.359,597.808 564,635.5C 562.5,637.667 560.667,639.5 558.5,641C 551.916,642.544 545.249,642.877 538.5,642C 533.244,640.267 530.91,636.6 531.5,631C 539.364,602.089 547.198,573.255 555,544.5C 543.282,554.614 530.449,563.114 516.5,570C 512.858,570.914 509.192,571.748 505.5,572.5C 495.172,594.331 481.172,613.498 463.5,630C 450.137,641.121 434.804,645.787 417.5,644C 405.236,640.07 397.403,631.903 394,619.5C 391.671,609.238 391.005,598.904 392,588.5C 381.32,604.848 368.82,619.682 354.5,633C 348.391,637.388 341.724,640.721 334.5,643C 314.184,646.427 299.684,638.927 291,620.5C 286.346,602.356 287.012,584.356 293,566.5C 300.275,541.29 311.275,517.956 326,496.5C 336.594,485.484 346.594,486.151 356,498.5C 359.13,503.771 359.13,509.105 356,514.5C 344.845,532.81 335.845,552.144 329,572.5C 326.597,580.849 325.097,589.349 324.5,598C 324.549,616.067 332.215,620.4 347.5,611C 374.076,585.395 393.909,555.228 407,520.5C 414.418,512.537 422.918,511.37 432.5,517C 437.009,520.883 438.509,525.716 437,531.5C 429.312,550.94 424.812,571.106 423.5,592C 423.232,599.563 424.732,606.73 428,613.5C 431.743,617.259 436.243,618.426 441.5,617C 449.489,613.018 456.323,607.518 462,600.5C 470.425,589.327 477.592,577.327 483.5,564.5C 479.579,560.251 477.079,555.251 476,549.5C 472.717,528.653 479.217,511.82 495.5,499C 512.454,497.452 520.454,505.285 519.5,522.5C 518.966,530.967 517.633,539.301 515.5,547.5C 525.506,546.663 534.173,542.829 541.5,536C 552.875,526.302 562.375,515.135 570,502.5C 574.456,498.238 579.789,496.571 586,497.5C 592.211,496.571 597.544,498.238 602,502.5C 602.667,505.5 602.667,508.5 602,511.5C 594.566,531.806 587.566,552.139 581,572.5C 594.904,551.25 611.07,531.75 629.5,514C 638.91,505.625 649.577,499.292 661.5,495C 674.925,491.397 686.425,494.563 696,504.5C 697.122,506.407 697.955,508.407 698.5,510.5 Z"/></g>
<g><path style="opacity:1" fill="#01639c" d="M 347.5,255.5 C 283.578,298.296 241.411,356.963 221,431.5C 204.865,499.75 210.532,566.083 238,630.5C 239.431,634.374 241.597,637.707 244.5,640.5C 274.128,710.222 327.462,744.055 404.5,742C 423.544,740.655 441.878,736.322 459.5,729C 485.456,716.685 511.79,705.352 538.5,695C 589.265,679.043 640.265,678.376 691.5,693C 700.697,696.01 709.697,699.51 718.5,703.5C 719.463,703.03 719.463,702.363 718.5,701.5C 722.88,703.7 726.88,706.533 730.5,710C 731.167,710.667 731.833,710.667 732.5,710C 780.534,656.432 806.868,593.599 811.5,521.5C 813.034,516.243 814.2,508.91 815,499.5C 815.333,501.167 815.667,502.833 816,504.5C 817.676,505.061 819.009,506.061 820,507.5C 821.335,503.639 822.501,503.639 823.5,507.5C 822.48,509.432 822.313,511.432 823,513.5C 824.264,511.393 826.097,510.393 828.5,510.5C 829.449,513.208 829.449,515.874 828.5,518.5C 826.115,518.203 823.782,518.703 821.5,520C 824.392,521.81 827.058,521.643 829.5,519.5C 830.62,520.833 831.953,521.333 833.5,521C 833.167,520.667 832.833,520.333 832.5,520C 834.602,518.27 834.435,516.437 832,514.5C 831.667,514.833 831.333,515.167 831,515.5C 830.647,512.461 829.48,509.795 827.5,507.5C 829.333,505.833 831.167,504.167 833,502.5C 833.374,500.102 833.374,497.769 833,495.5C 835.874,496.532 837.374,498.532 837.5,501.5C 840.516,501.159 843.182,499.993 845.5,498C 845.167,497.667 844.833,497.333 844.5,497C 846.099,495.214 846.933,493.047 847,490.5C 847.169,505.339 847.669,520.006 848.5,534.5C 838.236,633.554 794.236,713.721 716.5,775C 626.24,840.76 526.907,859.427 418.5,831C 300.563,793.396 223.063,715.563 186,597.5C 173.467,547.993 171.133,497.993 179,447.5C 181.255,434.478 184.422,421.811 188.5,409.5C 188.81,410.738 189.31,410.738 190,409.5C 195.767,388.628 203.767,368.628 214,349.5C 215.816,348.671 217.649,347.837 219.5,347C 218.409,344.936 218.242,342.769 219,340.5C 221.038,337.757 222.538,334.757 223.5,331.5C 244.113,296.214 270.78,266.214 303.5,241.5C 305.144,240.634 306.811,240.134 308.5,240C 307.833,240.667 307.167,241.333 306.5,242C 307.711,243.113 307.711,244.28 306.5,245.5C 307.242,246.287 308.075,246.953 309,247.5C 310.657,245.433 312.324,244.1 314,243.5C 315.604,244.068 316.27,245.068 316,246.5C 314.927,245.72 313.76,245.887 312.5,247C 313.849,247.772 314.682,248.939 315,250.5C 316.324,247.756 318.491,246.423 321.5,246.5C 321.451,249.099 320.451,251.266 318.5,253C 319.793,253.49 321.127,253.657 322.5,253.5C 322.351,254.552 322.517,255.552 323,256.5C 323.967,255.322 324.467,253.989 324.5,252.5C 325.675,253.855 326.675,253.688 327.5,252C 326.542,250.853 326.875,249.853 328.5,249C 325.236,247.422 324.736,245.256 327,242.5C 327.022,244.921 328.022,247.254 330,249.5C 330.494,247.866 330.66,246.199 330.5,244.5C 331.675,244.719 332.675,244.386 333.5,243.5C 332.471,243.704 331.471,243.204 330.5,242C 335.833,241.333 335.833,240.667 330.5,240C 329.549,239.282 329.383,238.449 330,237.5C 330.837,239.007 332.004,239.507 333.5,239C 334.428,237.024 335.595,235.191 337,233.5C 339.21,235.985 338.71,237.818 335.5,239C 337.059,239.98 338.726,240.813 340.5,241.5C 340.5,242.833 340.5,244.167 340.5,245.5C 342.885,250.207 344.385,250.207 345,245.5C 345.317,247.301 345.984,247.634 347,246.5C 348.698,249.396 348.864,252.396 347.5,255.5 Z"/></g>
<g><path style="opacity:1" fill="#179ac7" d="M 244.5,640.5 C 268.119,660.31 295.119,673.81 325.5,681C 365.364,688.839 405.03,687.839 444.5,678C 470.282,671.054 496.282,665.054 522.5,660C 581.124,653.041 637.457,661.375 691.5,685C 701.231,689.522 710.231,695.022 718.5,701.5C 719.463,702.363 719.463,703.03 718.5,703.5C 709.697,699.51 700.697,696.01 691.5,693C 640.265,678.376 589.265,679.043 538.5,695C 511.79,705.352 485.456,716.685 459.5,729C 441.878,736.322 423.544,740.655 404.5,742C 327.462,744.055 274.128,710.222 244.5,640.5 Z"/></g>
<g><path style="opacity:1" fill="#093a7c" d="M 698.5,510.5 C 698.691,515.899 698.191,521.233 697,526.5C 689.07,548.624 681.736,570.958 675,593.5C 673.594,599.442 673.261,605.442 674,611.5C 674.662,612.984 675.496,614.317 676.5,615.5C 674.589,615.426 673.422,614.426 673,612.5C 672.27,605.452 672.603,598.452 674,591.5C 680.071,571.621 686.737,551.955 694,532.5C 695.976,525.118 697.476,517.784 698.5,510.5 Z"/></g>
<g><path style="opacity:1" fill="#179bc8" d="M 629.5,726.5 C 653.928,725.515 677.261,730.015 699.5,740C 619.127,802.5 529.46,820.833 430.5,795C 415.905,790.693 401.905,785.027 388.5,778C 417.003,783.118 445.669,783.784 474.5,780C 486.386,777.445 498.053,774.112 509.5,770C 536.502,757.223 563.835,745.223 591.5,734C 604.096,730.38 616.763,727.88 629.5,726.5 Z"/></g>
</svg>
