<svg xmlns="http://www.w3.org/2000/svg" viewBox="0 0 128 128">
  <circle cx="64" cy="64" r="60" fill="#fff" stroke="#0F6CAD" stroke-width="8"/>
  <g fill="#F5B231">
    <rect x="60" y="32" width="8" height="32" rx="4"/>
    <path d="M56 64c0 8 16 8 16 0" stroke="#F5B231" stroke-width="6" fill="none"/>
  </g>
  <path d="M4 84c8-6 16 6 24 0s16-6 24 0 16 6 24 0 16-6 24 0v40H4Z" fill="#1583C2"/>
  <path d="M4 84c8 6 16-6 24 0s16 6 24 0 16-6 24 0 16 6 24 0" fill="none" stroke="#0F6CAD" stroke-width="4"/>
  <text x="32" y="80" font-size="40" font-family="Arial, sans-serif" font-weight="bold" fill="#0F6CAD">wn</text>
</svg>
